<?xml version="1.0" encoding="utf-8"?>
<svg version="1.1" xmlns:xlink="http://www.w3.org/1999/xlink" width="506px" height="219px" xmlns="http://www.w3.org/2000/svg">
  <g transform="matrix(1 0 0 1 -4443 -1488 )">
    <path d="M 4443 1488  L 4949 1488  L 4949 1707  L 4443 1707  L 4443 1488  " fill-rule="nonzero" fill="#cccccc" stroke="none" />
    <path d="M 4458 1503  L 4934 1503  L 4934 1692  L 4458 1692  L 4458 1503  " fill-rule="nonzero" fill="#ffffff" stroke="none" />
    <path d="M 4722.545 1553.7  C 4713.347 1553.7  4706.12 1546.473  4706.12 1537.275  C 4706.12 1528.077  4713.347 1520.85  4722.545 1520.85  C 4731.743 1520.85  4738.97 1528.077  4738.97 1537.275  C 4738.97 1546.473  4731.743 1553.7  4722.545 1553.7  " fill-rule="nonzero" fill="#cccccc" stroke="none" />
    <path d="M 4464 1687  L 4464 1589.1  L 4580.25 1544.6  L 4743 1640.77628458498  L 4836 1571.3  L 4929 1640.77628458498  L 4929 1687  L 4464 1687  " fill-rule="nonzero" fill="#169bd5" stroke="none" />
  </g>
</svg>