<?xml version="1.0" encoding="utf-8"?>
<svg version="1.1" xmlns:xlink="http://www.w3.org/1999/xlink" width="363px" height="320px" xmlns="http://www.w3.org/2000/svg">
  <g transform="matrix(1 0 0 1 -1050 -2712 )">
    <path d="M 1050 2712  L 1413 2712  L 1413 3032  L 1050 3032  L 1050 2712  " fill-rule="nonzero" fill="#cccccc" stroke="none" />
    <path d="M 1072 2734  L 1391 2734  L 1391 3010  L 1072 3010  L 1072 2734  " fill-rule="nonzero" fill="#ffffff" stroke="none" />
    <path d="M 1262.76 2808  C 1249.32 2808  1238.76 2797.44  1238.76 2784  C 1238.76 2770.56  1249.32 2760  1262.76 2760  C 1276.2 2760  1286.76 2770.56  1286.76 2784  C 1286.76 2797.44  1276.2 2808  1262.76 2808  " fill-rule="nonzero" fill="#cccccc" stroke="none" />
    <path d="M 1080 3002  L 1080 2859  L 1155.75 2794  L 1261.8 2864.47933884298  L 1322.4 2833  L 1383 2864.47933884298  L 1383 3002  L 1080 3002  " fill-rule="nonzero" fill="#169bd5" stroke="none" />
  </g>
</svg>