<?xml version="1.0" encoding="utf-8"?>
<svg version="1.1" xmlns:xlink="http://www.w3.org/1999/xlink" width="50px" height="50px" xmlns="http://www.w3.org/2000/svg">
  <g transform="matrix(1 0 0 1 -831 -5747 )">
    <path d="M 856 5747  C 870 5747  881 5758  881 5772  C 881 5786  870 5797  856 5797  C 842 5797  831 5786  831 5772  C 831 5758  842 5747  856 5747  Z " fill-rule="nonzero" fill="#ffffff" stroke="none" />
    <path d="M 856 5747.5  C 869.72 5747.5  880.5 5758.28  880.5 5772  C 880.5 5785.72  869.72 5796.5  856 5796.5  C 842.28 5796.5  831.5 5785.72  831.5 5772  C 831.5 5758.28  842.28 5747.5  856 5747.5  Z " stroke-width="1" stroke="#e8e6e6" fill="none" />
  </g>
</svg>