<?xml version="1.0" encoding="utf-8"?>
<svg version="1.1" xmlns:xlink="http://www.w3.org/1999/xlink" width="50px" height="50px" xmlns="http://www.w3.org/2000/svg">
  <g transform="matrix(1 0 0 1 -831 -5497 )">
    <path d="M 856 5497  C 870 5497  881 5508  881 5522  C 881 5536  870 5547  856 5547  C 842 5547  831 5536  831 5522  C 831 5508  842 5497  856 5497  Z " fill-rule="nonzero" fill="#ffffff" stroke="none" />
    <path d="M 856 5497.5  C 869.72 5497.5  880.5 5508.28  880.5 5522  C 880.5 5535.72  869.72 5546.5  856 5546.5  C 842.28 5546.5  831.5 5535.72  831.5 5522  C 831.5 5508.28  842.28 5497.5  856 5497.5  Z " stroke-width="1" stroke="#e8e6e6" fill="none" />
  </g>
</svg>