<?xml version="1.0" encoding="utf-8"?>
<svg version="1.1" xmlns:xlink="http://www.w3.org/1999/xlink" width="280px" height="66px" xmlns="http://www.w3.org/2000/svg">
  <g transform="matrix(1 0 0 1 -1112 -7167 )">
    <path d="M 1112 7167  L 1392 7167  L 1392 7233  L 1112 7233  L 1112 7167  " fill-rule="nonzero" fill="#cccccc" stroke="none" />
    <path d="M 1117 7172  L 1387 7172  L 1387 7228  L 1117 7228  L 1117 7172  " fill-rule="nonzero" fill="#ffffff" stroke="none" />
    <path d="M 1262.55 7186.8  C 1259.778 7186.8  1257.6 7184.622  1257.6 7181.85  C 1257.6 7179.078  1259.778 7176.9  1262.55 7176.9  C 1265.322 7176.9  1267.5 7179.078  1267.5 7181.85  C 1267.5 7184.622  1265.322 7186.8  1262.55 7186.8  " fill-rule="nonzero" fill="#cccccc" stroke="none" />
    <path d="M 1119 7227  L 1119 7197.85  L 1185.75 7184.6  L 1279.2 7219.50428571429  L 1332.6 7192.55  L 1386 7219.50428571429  L 1386 7227  L 1119 7227  " fill-rule="nonzero" fill="#169bd5" stroke="none" />
  </g>
</svg>