<?xml version="1.0" encoding="utf-8"?>
<svg version="1.1" xmlns:xlink="http://www.w3.org/1999/xlink" width="280px" height="66px" xmlns="http://www.w3.org/2000/svg">
  <g transform="matrix(1 0 0 1 -1112 -6379 )">
    <path d="M 1112 6379  L 1392 6379  L 1392 6445  L 1112 6445  L 1112 6379  " fill-rule="nonzero" fill="#cccccc" stroke="none" />
    <path d="M 1117 6384  L 1387 6384  L 1387 6440  L 1117 6440  L 1117 6384  " fill-rule="nonzero" fill="#ffffff" stroke="none" />
    <path d="M 1262.55 6398.8  C 1259.778 6398.8  1257.6 6396.622  1257.6 6393.85  C 1257.6 6391.078  1259.778 6388.9  1262.55 6388.9  C 1265.322 6388.9  1267.5 6391.078  1267.5 6393.85  C 1267.5 6396.622  1265.322 6398.8  1262.55 6398.8  " fill-rule="nonzero" fill="#cccccc" stroke="none" />
    <path d="M 1119 6439  L 1119 6409.85  L 1185.75 6396.6  L 1279.2 6431.50428571429  L 1332.6 6404.55  L 1386 6431.50428571429  L 1386 6439  L 1119 6439  " fill-rule="nonzero" fill="#169bd5" stroke="none" />
  </g>
</svg>