<?xml version="1.0" encoding="utf-8"?>
<svg version="1.1" xmlns:xlink="http://www.w3.org/1999/xlink" width="25px" height="25px" viewBox="3162 6160  25 25" xmlns="http://www.w3.org/2000/svg">
  <path d="M 3174.5 6160  C 3181.5 6160  3187 6165.5  3187 6172.5  C 3187 6179.5  3181.5 6185  3174.5 6185  C 3167.5 6185  3162 6179.5  3162 6172.5  C 3162 6165.5  3167.5 6160  3174.5 6160  Z " fill-rule="nonzero" fill="#ffffff" stroke="none" />
  <path d="M 3174.5 6160.5  C 3181.22 6160.5  3186.5 6165.78  3186.5 6172.5  C 3186.5 6179.22  3181.22 6184.5  3174.5 6184.5  C 3167.78 6184.5  3162.5 6179.22  3162.5 6172.5  C 3162.5 6165.78  3167.78 6160.5  3174.5 6160.5  Z " stroke-width="1" stroke="#797979" fill="none" />
  <path d="M 3174.5 6178.75  C 3171 6178.75  3168.25 6176  3168.25 6172.5  C 3168.25 6169  3171 6166.25  3174.5 6166.25  C 3178 6166.25  3180.75 6169  3180.75 6172.5  C 3180.75 6176  3178 6178.75  3174.5 6178.75  " fill-rule="nonzero" fill="#797979" stroke="none" />
</svg>