<?xml version="1.0" encoding="utf-8"?>
<svg version="1.1" xmlns:xlink="http://www.w3.org/1999/xlink" width="25px" height="25px" viewBox="3162 5872  25 25" xmlns="http://www.w3.org/2000/svg">
  <path d="M 3174.5 5872  C 3181.5 5872  3187 5877.5  3187 5884.5  C 3187 5891.5  3181.5 5897  3174.5 5897  C 3167.5 5897  3162 5891.5  3162 5884.5  C 3162 5877.5  3167.5 5872  3174.5 5872  Z " fill-rule="nonzero" fill="#ffffff" stroke="none" />
  <path d="M 3174.5 5872.5  C 3181.22 5872.5  3186.5 5877.78  3186.5 5884.5  C 3186.5 5891.22  3181.22 5896.5  3174.5 5896.5  C 3167.78 5896.5  3162.5 5891.22  3162.5 5884.5  C 3162.5 5877.78  3167.78 5872.5  3174.5 5872.5  Z " stroke-width="1" stroke="#797979" fill="none" />
  <path d="M 3174.5 5890.75  C 3171 5890.75  3168.25 5888  3168.25 5884.5  C 3168.25 5881  3171 5878.25  3174.5 5878.25  C 3178 5878.25  3180.75 5881  3180.75 5884.5  C 3180.75 5888  3178 5890.75  3174.5 5890.75  " fill-rule="nonzero" fill="#797979" stroke="none" />
</svg>