<?xml version="1.0" encoding="utf-8"?>
<svg version="1.1" xmlns:xlink="http://www.w3.org/1999/xlink" width="18px" height="19px" xmlns="http://www.w3.org/2000/svg">
  <g transform="matrix(1 0 0 1 -2692 -6956 )">
    <path d="M 2692 6956  L 2710 6956  L 2710 6975  L 2692 6975  L 2692 6956  " fill-rule="nonzero" fill="#cccccc" stroke="none" />
    <path d="M 2693 6957  L 2709 6957  L 2709 6974  L 2693 6974  L 2693 6957  " fill-rule="nonzero" fill="#ffffff" stroke="none" />
    <path d="M 2702.71 6961.55  C 2701.954 6961.55  2701.36 6960.956  2701.36 6960.2  C 2701.36 6959.444  2701.954 6958.85  2702.71 6958.85  C 2703.466 6958.85  2704.06 6959.444  2704.06 6960.2  C 2704.06 6960.956  2703.466 6961.55  2702.71 6961.55  " fill-rule="nonzero" fill="#cccccc" stroke="none" />
    <path d="M 2694 6974  L 2694 6965.2  L 2697.75 6961.2  L 2703 6964.4  L 2706 6963.6  L 2709 6964.4  L 2709 6974  L 2694 6974  " fill-rule="nonzero" fill="#169bd5" stroke="none" />
  </g>
</svg>