<?xml version="1.0" encoding="utf-8"?>
<svg version="1.1" xmlns:xlink="http://www.w3.org/1999/xlink" width="20px" height="20px" xmlns="http://www.w3.org/2000/svg">
  <g transform="matrix(1 0 0 1 -255 -1622 )">
    <path d="M 265 1622  C 270.6 1622  275 1626.4  275 1632  C 275 1637.6  270.6 1642  265 1642  C 259.4 1642  255 1637.6  255 1632  C 255 1626.4  259.4 1622  265 1622  Z " fill-rule="nonzero" fill="#fbb355" stroke="none" />
    <path d="M 265 1622.5  C 270.32 1622.5  274.5 1626.68  274.5 1632  C 274.5 1637.32  270.32 1641.5  265 1641.5  C 259.68 1641.5  255.5 1637.32  255.5 1632  C 255.5 1626.68  259.68 1622.5  265 1622.5  Z " stroke-width="1" stroke="#797979" fill="none" />
  </g>
</svg>