<?xml version="1.0" encoding="utf-8"?>
<svg version="1.1" xmlns:xlink="http://www.w3.org/1999/xlink" width="20px" height="20px" xmlns="http://www.w3.org/2000/svg">
  <g transform="matrix(1 0 0 1 -305 -1622 )">
    <path d="M 315 1622  C 320.6 1622  325 1626.4  325 1632  C 325 1637.6  320.6 1642  315 1642  C 309.4 1642  305 1637.6  305 1632  C 305 1626.4  309.4 1622  315 1622  Z " fill-rule="nonzero" fill="#e5e3e3" stroke="none" />
    <path d="M 315 1622.5  C 320.32 1622.5  324.5 1626.68  324.5 1632  C 324.5 1637.32  320.32 1641.5  315 1641.5  C 309.68 1641.5  305.5 1637.32  305.5 1632  C 305.5 1626.68  309.68 1622.5  315 1622.5  Z " stroke-width="1" stroke="#797979" fill="none" />
  </g>
</svg>