<?xml version="1.0" encoding="utf-8"?>
<svg version="1.1" xmlns:xlink="http://www.w3.org/1999/xlink" width="15px" height="18px" xmlns="http://www.w3.org/2000/svg">
  <g transform="matrix(1 0 0 1 -194 -3567 )">
    <path d="M 9.99609375 13.96875  C 11.83203125 12.53125  12.75 11.125  12.75 9.75  L 12.75 2.25  L 7.5 2.25  L 7.5 15.57421875  C 8.4296875 15.08203125  9.26171875 14.546875  9.99609375 13.96875  Z M 14.77734375 0.222656249999999  C 14.92578125 0.371093749999998  15 0.546874999999998  15 0.749999999999999  L 15 9.75  C 15 10.421875  14.869140625 11.087890625  14.607421875 11.748046875  C 14.345703125 12.408203125  14.021484375 12.994140625  13.634765625 13.505859375  C 13.248046875 14.017578125  12.787109375 14.515625  12.251953125 15  C 11.716796875 15.484375  11.22265625 15.88671875  10.76953125 16.20703125  C 10.31640625 16.52734375  9.84375 16.830078125  9.3515625 17.115234375  C 8.859375 17.400390625  8.509765625 17.59375  8.302734375 17.6953125  C 8.095703125 17.796875  7.9296875 17.875  7.8046875 17.9296875  C 7.7109375 17.9765625  7.609375 18  7.5 18  C 7.390625 18  7.2890625 17.9765625  7.1953125 17.9296875  C 7.0703125 17.875  6.904296875 17.796875  6.697265625 17.6953125  C 6.490234375 17.59375  6.140625 17.400390625  5.6484375 17.115234375  C 5.15625 16.830078125  4.68359375 16.52734375  4.23046875 16.20703125  C 3.77734375 15.88671875  3.283203125 15.484375  2.748046875 15  C 2.212890625 14.515625  1.751953125 14.017578125  1.365234375 13.505859375  C 0.978515625 12.994140625  0.654296875 12.408203125  0.392578125 11.748046875  C 0.130859375 11.087890625  0 10.421875  0 9.75  L 0 0.749999999999999  C 0 0.546874999999998  0.07421875 0.371093749999998  0.22265625 0.222656249999999  C 0.37109375 0.0742187499999991  0.546875 0  0.75 0  L 14.25 0  C 14.453125 0  14.62890625 0.0742187499999991  14.77734375 0.222656249999999  Z " fill-rule="nonzero" fill="#967ff0" stroke="none" transform="matrix(1 0 0 1 194 3567 )" />
  </g>
</svg>