<?xml version="1.0" encoding="utf-8"?>
<svg version="1.1" xmlns:xlink="http://www.w3.org/1999/xlink" width="20px" height="20px" xmlns="http://www.w3.org/2000/svg">
  <g transform="matrix(1 0 0 1 -1948 -466 )">
    <path d="M 1.88908145580589 0.212053571428572  L 19.6360485268631 11.640625  C 19.9942229924899 11.8638392857143  20.0751010976314 12.1205357142857  19.8786828422877 12.4107142857143  C 19.682264586944 12.7083333333333  19.3414211438475 12.8571428571429  18.8561525129983 12.8571428571429  L 12.2357019064125 12.8571428571429  L 15.7192374350087 18.1696428571429  C 15.8347775852109 18.3556547619048  15.8347775852109 18.5379464285714  15.7192374350087 18.7165178571429  C 15.6036972848065 18.8950892857143  15.4072790294627 19.0252976190476  15.1299826689775 19.1071428571429  L 12.0623916811092 19.9441964285714  C 11.7735413056037 20.0186011904762  11.4904679376083 20.0186011904762  11.2131715771231 19.9441964285714  C 10.9358752166378 19.8697916666667  10.7336799537839 19.7433035714286  10.6065857885615 19.5647321428571  L 7.29636048526863 14.5200892857143  L 1.88908145580589 18.0022321428571  C 1.66955517042172 18.1436011904762  1.40958983246678 18.2142857142857  1.10918544194107 18.2142857142857  C 0.97053726169844 18.2142857142857  0.831889081455806 18.1956845238095  0.693240901213172 18.1584821428571  C 0.23108030040439 18.031994047619  0 17.8125  0 17.5  L 0 0.714285714285714  C 0 0.401785714285714  0.23108030040439 0.182291666666665  0.693240901213172 0.0558035714285721  C 0.831889081455806 0.0186011904761907  0.97053726169844 0  1.10918544194107 0  C 1.421143847487 0  1.68110918544194 0.0706845238095255  1.88908145580589 0.212053571428572  Z " fill-rule="nonzero" fill="#3492f7" stroke="none" transform="matrix(1 0 0 1 1948 466 )" />
  </g>
</svg>