<?xml version="1.0" encoding="utf-8"?>
<svg version="1.1" xmlns:xlink="http://www.w3.org/1999/xlink" width="136px" height="135px" xmlns="http://www.w3.org/2000/svg">
  <g transform="matrix(1 0 0 1 -254 -4254 )">
    <path d="M 28.421875 99.0926846590909  C 28.9025297619048 99.6999289772727  29.1428571428571 100.419034090909  29.1428571428571 101.25  L 29.1428571428571 107.386363636364  C 29.1428571428571 108.217329545455  28.9025297619048 108.936434659091  28.421875 109.543678977273  C 27.9412202380952 110.150923295455  27.3720238095238 110.454545454545  26.7142857142857 110.454545454545  L 21.8571428571429 110.454545454545  C 21.1994047619048 110.454545454545  20.6302083333333 110.150923295455  20.1495535714286 109.543678977273  C 19.6688988095238 108.936434659091  19.4285714285714 108.217329545455  19.4285714285714 107.386363636364  L 19.4285714285714 101.25  C 19.4285714285714 100.419034090909  19.6688988095238 99.6999289772727  20.1495535714286 99.0926846590909  C 20.6302083333333 98.4854403409091  21.1994047619048 98.1818181818182  21.8571428571429 98.1818181818182  L 26.7142857142857 98.1818181818182  C 27.3720238095238 98.1818181818182  27.9412202380952 98.4854403409091  28.421875 99.0926846590909  Z M 28.421875 74.5472301136364  C 28.9025297619048 75.1544744318182  29.1428571428571 75.8735795454545  29.1428571428571 76.7045454545455  L 29.1428571428571 82.8409090909091  C 29.1428571428571 83.671875  28.9025297619048 84.3909801136363  28.421875 84.9982244318182  C 27.9412202380952 85.60546875  27.3720238095238 85.9090909090909  26.7142857142857 85.9090909090909  L 21.8571428571429 85.9090909090909  C 21.1994047619048 85.9090909090909  20.6302083333333 85.60546875  20.1495535714286 84.9982244318182  C 19.6688988095238 84.3909801136363  19.4285714285714 83.671875  19.4285714285714 82.8409090909091  L 19.4285714285714 76.7045454545455  C 19.4285714285714 75.8735795454545  19.6688988095238 75.1544744318182  20.1495535714286 74.5472301136364  C 20.6302083333333 73.9399857954545  21.1994047619048 73.6363636363636  21.8571428571429 73.6363636363636  L 26.7142857142857 73.6363636363636  C 27.3720238095238 73.6363636363636  27.9412202380952 73.9399857954545  28.421875 74.5472301136364  Z M 28.421875 50.0017755681818  C 28.9025297619048 50.6090198863636  29.1428571428571 51.328125  29.1428571428571 52.1590909090909  L 29.1428571428571 58.2954545454545  C 29.1428571428571 59.1264204545455  28.9025297619048 59.8455255681818  28.421875 60.4527698863636  C 27.9412202380952 61.0600142045455  27.3720238095238 61.3636363636364  26.7142857142857 61.3636363636364  L 21.8571428571429 61.3636363636364  C 21.1994047619048 61.3636363636364  20.6302083333333 61.0600142045455  20.1495535714286 60.4527698863636  C 19.6688988095238 59.8455255681818  19.4285714285714 59.1264204545455  19.4285714285714 58.2954545454545  L 19.4285714285714 52.1590909090909  C 19.4285714285714 51.328125  19.6688988095238 50.6090198863636  20.1495535714286 50.0017755681818  C 20.6302083333333 49.39453125  21.1994047619048 49.0909090909091  21.8571428571429 49.0909090909091  L 26.7142857142857 49.0909090909091  C 27.3720238095238 49.0909090909091  27.9412202380952 49.39453125  28.421875 50.0017755681818  Z M 115.850446428571 99.0926846590909  C 116.331101190476 99.6999289772727  116.571428571429 100.419034090909  116.571428571429 101.25  L 116.571428571429 107.386363636364  C 116.571428571429 108.217329545455  116.331101190476 108.936434659091  115.850446428571 109.543678977273  C 115.369791666667 110.150923295455  114.800595238095 110.454545454545  114.142857142857 110  L 41.2857142857143 110  C 40.6279761904762 110.454545454545  40.0587797619048 110.150923295455  39.578125 109.543678977273  C 39.0974702380952 108.936434659091  38.8571428571429 108.217329545455  38.8571428571429 107.386363636364  L 38.8571428571429 101.25  C 38.8571428571429 100.419034090909  39.0974702380952 99.6999289772727  39.578125 99.0926846590909  C 40.0587797619048 98.4854403409091  40.6279761904762 98.1818181818182  41.2857142857143 98  L 114.142857142857 98  C 114.800595238095 98.1818181818182  115.369791666667 98.4854403409091  115.850446428571 99.0926846590909  Z M 115.850446428571 74.5472301136364  C 116.331101190476 75.1544744318182  116.571428571429 75.8735795454545  116.571428571429 76.7045454545455  L 116.571428571429 82.8409090909091  C 116.571428571429 83.671875  116.331101190476 84.3909801136363  115.850446428571 84.9982244318182  C 115.369791666667 85.60546875  114.800595238095 85.9090909090909  114.142857142857 86  L 41.2857142857143 86  C 40.6279761904762 85.9090909090909  40.0587797619048 85.60546875  39.578125 84.9982244318182  C 39.0974702380952 84.3909801136363  38.8571428571429 83.671875  38.8571428571429 82.8409090909091  L 38.8571428571429 76.7045454545455  C 38.8571428571429 75.8735795454545  39.0974702380952 75.1544744318182  39.578125 74.5472301136364  C 40.0587797619048 73.9399857954545  40.6279761904762 73.6363636363636  41.2857142857143 73  L 114.142857142857 73  C 114.800595238095 73.6363636363636  115.369791666667 73.9399857954545  115.850446428571 74.5472301136364  Z M 115.850446428571 50.0017755681818  C 116.331101190476 50.6090198863636  116.571428571429 51.328125  116.571428571429 52.1590909090909  L 116.571428571429 58.2954545454545  C 116.571428571429 59.1264204545455  116.331101190476 59.8455255681818  115.850446428571 60.4527698863636  C 115.369791666667 61.0600142045455  114.800595238095 61.3636363636364  114.142857142857 62  L 41.2857142857143 62  C 40.6279761904762 61.3636363636364  40.0587797619048 61.0600142045455  39.578125 60.4527698863636  C 39.0974702380952 59.8455255681818  38.8571428571429 59.1264204545455  38.8571428571429 58.2954545454545  L 38.8571428571429 52.1590909090909  C 38.8571428571429 51.328125  39.0974702380952 50.6090198863636  39.578125 50.0017755681818  C 40.0587797619048 49.39453125  40.6279761904762 49.0909090909091  41.2857142857143 49  L 114.142857142857 49  C 114.800595238095 49.0909090909091  115.369791666667 49.39453125  115.850446428571 50.0017755681818  Z M 125.564732142857 121.81640625  C 126.045386904762 121.209161931818  126.285714285714 120.490056818182  126 119.659090909091  L 126 39.8863636363636  C 126.285714285714 39.0553977272727  126.045386904762 38.3362926136364  125.564732142857 37.7290482954545  C 125.084077380952 37.1218039772727  124.514880952381 36.8181818181818  123.857142857143 37  L 12.1428571428571 37  C 11.485119047619 36.8181818181818  10.9159226190476 37.1218039772727  10.4352678571429 37.7290482954545  C 9.9546130952381 38.3362926136364  9.71428571428571 39.0553977272727  10 39.8863636363636  L 10 119.659090909091  C 9.71428571428571 120.490056818182  9.9546130952381 121.209161931818  10.4352678571429 121.81640625  C 10.9159226190476 122.423650568182  11.485119047619 122.727272727273  12.1428571428571 122  L 123.857142857143 122  C 124.514880952381 122.727272727273  125.084077380952 122.423650568182  125.564732142857 121.81640625  Z M 132.433035714286 4.50639204545454  C 134.811011904762 7.5106534090909  136 11.1221590909091  136 15.3409090909091  L 136 119.659090909091  C 136 123.877840909091  134.811011904762 127.489346590909  132.433035714286 130.493607954545  C 130.05505952381 133.497869318182  127.196428571429 135  123.857142857143 135  L 12.1428571428571 135  C 8.80357142857143 135  5.94494047619048 133.497869318182  3.56696428571429 130.493607954545  C 1.1889880952381 127.489346590909  0 123.877840909091  0 119.659090909091  L 0 15.3409090909091  C 0 11.1221590909091  1.1889880952381 7.5106534090909  3.56696428571429 4.50639204545454  C 5.94494047619048 1.50213068181816  8.80357142857143 0  12.1428571428571 0  L 123.857142857143 0  C 127.196428571429 0  130.05505952381 1.50213068181816  132.433035714286 4.50639204545454  Z " fill-rule="nonzero" fill="#967ff0" stroke="none" transform="matrix(1 0 0 1 254 4254 )" />
  </g>
</svg>